<mxfile host="app.diagrams.net" modified="2024-04-08T08:11:56.080Z" agent="Mozilla/5.0 (Macintosh; Intel Mac OS X 10_15_7) AppleWebKit/537.36 (KHTML, like Gecko) Chrome/123.0.0.0 Safari/537.36" version="24.2.2" etag="drVfP_gv3JgZzf85K0GS" type="github">
  <diagram name="第 1 页" id="hnyhINtM0eCyKPwDplMp">
    <mxGraphModel>
      <root>
        <mxCell id="0" />
        <mxCell id="1" parent="0" />
      </root>
    </mxGraphModel>
  </diagram>
</mxfile>
